<svg width="31" height="26" viewBox="0 0 31 26" fill="none" xmlns="http://www.w3.org/2000/svg">
<path d="M15.5001 1.65674L15.8003 0.969474C15.6089 0.885827 15.3912 0.885827 15.1998 0.969474L15.5001 1.65674ZM29.3654 9.44495L29.5649 10.1679C29.8448 10.0906 30.055 9.85874 30.1044 9.57259C30.1538 9.28644 30.0336 8.99747 29.7958 8.83079L29.3654 9.44495ZM1.63477 9.44493L1.20428 8.83078C0.966491 8.99746 0.846286 9.28642 0.895707 9.57257C0.945128 9.85872 1.15529 10.0906 1.43521 10.1679L1.63477 9.44493ZM15.5001 14.9848L15.1466 15.6463C15.3675 15.7643 15.6327 15.7643 15.8535 15.6463L15.5001 14.9848ZM26.4753 18.9919L26.7643 19.684C27.0497 19.5649 27.2327 19.2827 27.2251 18.9735L26.4753 18.9919ZM15.5 24.8714L15.0841 25.4955C15.336 25.6634 15.664 25.6634 15.9159 25.4955L15.5 24.8714ZM4.5247 18.9919L3.77493 18.9735C3.76731 19.2827 3.95031 19.5649 4.23575 19.684L4.5247 18.9919ZM5.1791 10.5289L5.41806 9.81795L5.1791 10.5289ZM25.8209 10.5289L25.5819 9.818L25.8209 10.5289ZM8.5 12.0993L8.10418 11.4623C7.88393 11.5991 7.75 11.84 7.75 12.0993H8.5ZM15.8247 8.93378C16.1981 8.75444 16.3554 8.30637 16.1761 7.933C15.9967 7.55962 15.5486 7.40233 15.1753 7.58167L15.8247 8.93378ZM8.5 18L9.25 18V18H8.5ZM5.62652 23.1265C5.33363 23.4194 5.33363 23.8943 5.62652 24.1872C5.91942 24.4801 6.39429 24.4801 6.68718 24.1872L5.62652 23.1265ZM9.25 16C9.25 15.5858 8.91421 15.25 8.5 15.25C8.08579 15.25 7.75 15.5858 7.75 16H9.25ZM15.1998 2.344C20.0505 4.46335 24.6481 7.05434 28.9349 10.0591L29.7958 8.83079C25.4282 5.76933 20.7434 3.12918 15.8003 0.969474L15.1998 2.344ZM2.06525 10.0591C6.35198 7.05433 10.9497 4.46335 15.8003 2.344L15.1998 0.969474C10.2568 3.12917 5.57192 5.76931 1.20428 8.83078L2.06525 10.0591ZM15.9159 25.4955C19.3177 23.2285 22.9478 21.2774 26.7643 19.684L26.1863 18.2998C22.2802 19.9307 18.5652 21.9275 15.0841 24.2473L15.9159 25.4955ZM4.23575 19.684C8.05221 21.2774 11.6823 23.2285 15.0841 25.4955L15.9159 24.2473C12.4348 21.9275 8.71982 19.9307 4.81366 18.2998L4.23575 19.684ZM5.27448 19.0104C5.34431 16.176 5.56292 13.3787 5.92277 10.6261L4.43543 10.4316C4.06876 13.2364 3.84606 16.0863 3.77493 18.9735L5.27448 19.0104ZM1.43521 10.1679C2.61689 10.4941 3.78552 10.8517 4.94014 11.2398L5.41806 9.81795C4.23747 9.42112 3.04256 9.05547 1.83432 8.72197L1.43521 10.1679ZM4.94014 11.2398C8.48328 12.4307 11.8947 13.9088 15.1466 15.6463L15.8535 14.3234C12.5288 12.5469 9.04089 11.0357 5.41806 9.81795L4.94014 11.2398ZM25.0772 10.6261C25.4371 13.3788 25.6557 16.176 25.7255 19.0104L27.2251 18.9735C27.1539 16.0863 26.9312 13.2365 26.5646 10.4317L25.0772 10.6261ZM15.8535 15.6463C19.1054 13.9088 22.5168 12.4308 26.0599 11.2398L25.5819 9.818C21.9592 11.0357 18.4713 12.5469 15.1466 14.3234L15.8535 15.6463ZM26.0599 11.2398C27.2145 10.8517 28.3832 10.4941 29.5649 10.1679L29.1658 8.72198C27.9575 9.05549 26.7626 9.42116 25.5819 9.818L26.0599 11.2398ZM8.75 16C8.75 16.1381 8.63807 16.25 8.5 16.25V17.75C9.4665 17.75 10.25 16.9665 10.25 16H8.75ZM8.5 16.25C8.36193 16.25 8.25 16.1381 8.25 16H6.75C6.75 16.9665 7.5335 17.75 8.5 17.75V16.25ZM8.25 16C8.25 15.8619 8.36193 15.75 8.5 15.75V14.25C7.5335 14.25 6.75 15.0335 6.75 16H8.25ZM8.5 15.75C8.63807 15.75 8.75 15.8619 8.75 16H10.25C10.25 15.0335 9.4665 14.25 8.5 14.25V15.75ZM8.89582 12.7363C11.1283 11.3492 13.4408 10.0789 15.8247 8.93378L15.1753 7.58167C12.7423 8.75031 10.3823 10.0467 8.10418 11.4623L8.89582 12.7363ZM7.75 12.0993V17H9.25V12.0993H7.75ZM7.75 18C7.75 19.8566 7.04232 21.7107 5.62652 23.1265L6.68718 24.1872C8.39558 22.4788 9.25 20.2382 9.25 18L7.75 18ZM9.25 18V16H7.75V18H9.25Z" fill="#F53D5D"/>
</svg>
