<svg width="223" height="45" viewBox="0 0 223 45" fill="none" xmlns="http://www.w3.org/2000/svg">
<path d="M9.41211 7.7647H14.118V44.4706L9.41211 40.2353V7.7647Z" fill="white"/>
<path d="M30.5879 7.7647H25.882V44.4706L30.5879 40.2353V7.7647Z" fill="white"/>
<path d="M0 0H40V12.9412L35.2941 16.9412V4.70588H4.47059V16.9412L0 12.9412V0Z" fill="white"/>
<path d="M17.4121 15.5294H22.118V33.8823L19.7651 36.9412L17.4121 33.8823V15.5294Z" fill="white"/>
<path d="M49.752 30.2353V13.4353H52.344V20.6353H59.4V13.4353H61.992V30.2353H59.4V22.9873H52.344V30.2353H49.752ZM70.998 30.5713C69.798 30.5713 68.75 30.3233 67.854 29.8273C66.958 29.3153 66.254 28.6033 65.742 27.6913C65.246 26.7633 64.998 25.6913 64.998 24.4753V24.1873C64.998 22.9553 65.246 21.8833 65.742 20.9713C66.238 20.0433 66.926 19.3313 67.806 18.8353C68.702 18.3233 69.734 18.0673 70.902 18.0673C72.038 18.0673 73.03 18.3233 73.878 18.8353C74.742 19.3313 75.414 20.0273 75.894 20.9233C76.374 21.8193 76.614 22.8673 76.614 24.0673V25.0033H67.518C67.55 26.0433 67.894 26.8753 68.55 27.4993C69.222 28.1073 70.054 28.4113 71.046 28.4113C71.974 28.4113 72.67 28.2033 73.134 27.7873C73.614 27.3713 73.982 26.8913 74.238 26.3473L76.278 27.4033C76.054 27.8513 75.726 28.3233 75.294 28.8193C74.878 29.3153 74.326 29.7313 73.638 30.0673C72.95 30.4033 72.07 30.5713 70.998 30.5713ZM67.542 23.1073H74.094C74.03 22.2113 73.71 21.5153 73.134 21.0193C72.558 20.5073 71.806 20.2513 70.878 20.2513C69.95 20.2513 69.19 20.5073 68.598 21.0193C68.022 21.5153 67.67 22.2113 67.542 23.1073ZM81.9038 30.2353L77.9198 18.4033H80.5358L83.6797 28.4113H84.0638L87.2078 18.4033H89.8238L85.8398 30.2353H81.9038ZM92.2224 30.2353V18.4033H94.6464V19.7953H95.0304C95.2224 19.2993 95.5264 18.9393 95.9424 18.7153C96.3744 18.4753 96.9024 18.3553 97.5264 18.3553H98.9424V20.5873H97.4304C96.6304 20.5873 95.9744 20.8113 95.4624 21.2593C94.9504 21.6913 94.6944 22.3633 94.6944 23.2753V30.2353H92.2224ZM101.504 30.2353V18.4033H103.976V30.2353H101.504ZM102.752 16.7953C102.272 16.7953 101.864 16.6433 101.528 16.3393C101.208 16.0193 101.048 15.6113 101.048 15.1153C101.048 14.6193 101.208 14.2193 101.528 13.9153C101.864 13.5953 102.272 13.4353 102.752 13.4353C103.248 13.4353 103.656 13.5953 103.976 13.9153C104.296 14.2193 104.456 14.6193 104.456 15.1153C104.456 15.6113 104.296 16.0193 103.976 16.3393C103.656 16.6433 103.248 16.7953 102.752 16.7953ZM107.644 30.2353V18.4033H110.068V20.1793H110.452C110.676 19.6993 111.076 19.2513 111.652 18.8353C112.228 18.4193 113.084 18.2113 114.22 18.2113C115.116 18.2113 115.908 18.4113 116.596 18.8113C117.3 19.2113 117.852 19.7793 118.252 20.5153C118.652 21.2353 118.852 22.1073 118.852 23.1313V30.2353H116.38V23.3233C116.38 22.2993 116.124 21.5473 115.612 21.0673C115.1 20.5713 114.396 20.3233 113.5 20.3233C112.476 20.3233 111.652 20.6593 111.028 21.3313C110.42 22.0033 110.116 22.9793 110.116 24.2593V30.2353H107.644ZM127.258 30.5713C125.754 30.5713 124.506 30.2353 123.514 29.5633C122.522 28.8913 121.914 27.8753 121.69 26.5153L123.994 25.9633C124.122 26.6193 124.338 27.1393 124.642 27.5233C124.946 27.9073 125.322 28.1793 125.77 28.3393C126.234 28.4993 126.73 28.5793 127.258 28.5793C128.042 28.5793 128.642 28.4273 129.058 28.1233C129.49 27.8193 129.706 27.4273 129.706 26.9473C129.706 26.4673 129.506 26.1153 129.106 25.8913C128.706 25.6673 128.114 25.4833 127.33 25.3393L126.514 25.1953C125.714 25.0513 124.986 24.8433 124.33 24.5713C123.674 24.2993 123.154 23.9233 122.77 23.4433C122.386 22.9633 122.194 22.3473 122.194 21.5953C122.194 20.4753 122.61 19.6113 123.442 19.0033C124.274 18.3793 125.378 18.0673 126.754 18.0673C128.082 18.0673 129.17 18.3713 130.018 18.9793C130.882 19.5713 131.442 20.3793 131.698 21.4033L129.394 22.0513C129.25 21.3313 128.946 20.8273 128.482 20.5393C128.018 20.2353 127.442 20.0833 126.754 20.0833C126.082 20.0833 125.554 20.2113 125.17 20.4673C124.786 20.7073 124.594 21.0513 124.594 21.4993C124.594 21.9793 124.778 22.3313 125.146 22.5553C125.53 22.7793 126.042 22.9473 126.682 23.0593L127.522 23.2033C128.37 23.3473 129.146 23.5473 129.85 23.8033C130.554 24.0593 131.106 24.4273 131.506 24.9073C131.922 25.3873 132.13 26.0273 132.13 26.8273C132.13 28.0113 131.69 28.9313 130.81 29.5873C129.93 30.2433 128.746 30.5713 127.258 30.5713ZM139.202 30.2353C138.482 30.2353 137.906 30.0193 137.474 29.5873C137.058 29.1553 136.85 28.5793 136.85 27.8593V20.4913H133.586V18.4033H136.85V14.4913H139.322V18.4033H142.85V20.4913H139.322V27.4273C139.322 27.9073 139.546 28.1473 139.993 28.1473H142.466V30.2353H139.202ZM145.754 30.2353V18.4033H148.226V30.2353H145.754ZM147.002 16.7953C146.522 16.7953 146.114 16.6433 145.778 16.3393C145.458 16.0193 145.298 15.6113 145.298 15.1153C145.298 14.6193 145.458 14.2193 145.778 13.9153C146.114 13.5953 146.522 13.4353 147.002 13.4353C147.498 13.4353 147.906 13.5953 148.226 13.9153C148.546 14.2193 148.706 14.6193 148.706 15.1153C148.706 15.6113 148.546 16.0193 148.226 16.3393C147.906 16.6433 147.498 16.7953 147.002 16.7953ZM156.334 30.2353C155.614 30.2353 155.038 30.0193 154.606 29.5873C154.19 29.1553 153.982 28.5793 153.982 27.8593V20.4913H150.718V18.4033H153.982V14.4913H156.454V18.4033H159.982V20.4913H156.454V27.4273C156.454 27.9073 156.678 28.1473 157.126 28.1473H159.598V30.2353H156.334ZM167.423 30.4513C166.527 30.4513 165.727 30.2513 165.023 29.8513C164.319 29.4513 163.767 28.8833 163.367 28.1473C162.967 27.4113 162.767 26.5313 162.767 25.5073V18.4033H165.239V25.3393C165.239 26.3633 165.495 27.1233 166.007 27.6193C166.519 28.0993 167.231 28.3393 168.143 28.3393C169.151 28.3393 169.959 28.0033 170.567 27.3313C171.191 26.6433 171.503 25.6593 171.503 24.3793V18.4033H173.975V30.2353H171.551V28.4593H171.167C170.943 28.9393 170.543 29.3953 169.967 29.8273C169.391 30.2433 168.543 30.4513 167.423 30.4513ZM182.069 30.2353C181.349 30.2353 180.773 30.0193 180.341 29.5873C179.925 29.1553 179.717 28.5793 179.717 27.8593V20.4913H176.453V18.4033H179.717V14.4913H182.189V18.4033H185.717V20.4913H182.189V27.4273C182.189 27.9073 182.413 28.1473 182.861 28.1473H185.333V30.2353H182.069ZM188.621 30.2353V18.4033H191.093V30.2353H188.621ZM189.869 16.7953C189.389 16.7953 188.981 16.6433 188.645 16.3393C188.325 16.0193 188.165 15.6113 188.165 15.1153C188.165 14.6193 188.325 14.2193 188.645 13.9153C188.981 13.5953 189.389 13.4353 189.869 13.4353C190.365 13.4353 190.773 13.5953 191.093 13.9153C191.413 14.2193 191.573 14.6193 191.573 15.1153C191.573 15.6113 191.413 16.0193 191.093 16.3393C190.773 16.6433 190.365 16.7953 189.869 16.7953ZM200.306 30.5713C199.122 30.5713 198.066 30.3313 197.138 29.8513C196.226 29.3553 195.506 28.6513 194.978 27.7393C194.45 26.8273 194.186 25.7473 194.186 24.4993V24.1393C194.186 22.8913 194.45 21.8193 194.978 20.9233C195.506 20.0113 196.226 19.3073 197.138 18.8113C198.066 18.3153 199.122 18.0673 200.306 18.0673C201.49 18.0673 202.546 18.3153 203.474 18.8113C204.402 19.3073 205.13 20.0113 205.658 20.9233C206.186 21.8193 206.45 22.8913 206.45 24.1393V24.4993C206.45 25.7473 206.186 26.8273 205.658 27.7393C205.13 28.6513 204.402 29.3553 203.474 29.8513C202.546 30.3313 201.49 30.5713 200.306 30.5713ZM200.306 28.3633C201.394 28.3633 202.274 28.0193 202.946 27.3313C203.634 26.6273 203.978 25.6593 203.978 24.4273V24.2113C203.978 22.9793 203.642 22.0193 202.97 21.3313C202.298 20.6273 201.41 20.2753 200.306 20.2753C199.234 20.2753 198.354 20.6273 197.666 21.3313C196.994 22.0193 196.658 22.9793 196.658 24.2113V24.4273C196.658 25.6593 196.994 26.6273 197.666 27.3313C198.354 28.0193 199.234 28.3633 200.306 28.3633ZM209.527 30.2353V18.4033H211.951V20.1793H212.335C212.559 19.6993 212.959 19.2513 213.535 18.8353C214.111 18.4193 214.967 18.2113 216.103 18.2113C216.999 18.2113 217.791 18.4113 218.479 18.8113C219.183 19.2113 219.735 19.7793 220.135 20.5153C220.535 21.2353 220.735 22.1073 220.735 23.1313V30.2353H218.263V23.3233C218.263 22.2993 218.007 21.5473 217.495 21.0673C216.983 20.5713 216.279 20.3233 215.383 20.3233C214.359 20.3233 213.535 20.6593 212.911 21.3313C212.303 22.0033 211.999 22.9793 211.999 24.2593V30.2353H209.527Z" fill="white"/>
</svg>
